<?xml version="1.0" encoding="UTF-8"?>
<svg id="Layer_1" xmlns="http://www.w3.org/2000/svg" version="1.1" viewBox="0 0 98.8 98.8">
  <!-- Generator: Adobe Illustrator 30.0.0, SVG Export Plug-In . SVG Version: 2.1.1 Build 123)  -->
  <defs>
    <style>
      .st0 {
        fill: #fff;
      }
    </style>
  </defs>
  <path class="st0" d="M22.12,34.01c-.33-.32-.89-.44-1.66-.36-.2.02-.42.05-.66.1-.24.05-.5.1-.77.15.03.64.07,1.43.11,2.35.04.92.07,1.89.09,2.9.23.04.46.06.69.06.22,0,.43,0,.61-.02.53-.05.95-.22,1.26-.5.3-.28.53-.62.68-1,.15-.38.24-.78.26-1.18.02-.4.02-.75,0-1.04-.06-.66-.26-1.14-.59-1.46Z"/>
  <polygon class="st0" points="63.97 76.01 65.23 75.92 65.09 74.05 63.97 76.01"/>
  <path class="st0" d="M28.32,56.53c-.33-.32-.89-.44-1.66-.36-.2.02-.42.05-.66.1-.24.05-.5.1-.77.15.03.64.07,1.43.11,2.35.04.92.07,1.89.09,2.9.23.04.46.06.69.06.22,0,.43,0,.61-.02.53-.05.95-.22,1.26-.5.3-.28.53-.62.68-1,.15-.38.24-.78.26-1.18.02-.4.02-.75,0-1.04-.06-.66-.26-1.14-.59-1.46Z"/>
  <path class="st0" d="M56.87,74.5c-.08-.24-.17-.39-.28-.46-.1-.07-.22-.11-.35-.1-.13,0-.24.06-.33.15-.09.09-.16.24-.2.45-.05.28-.06.74-.01,1.38.05.64.11,1.08.19,1.32.08.24.17.39.28.46.1.07.22.1.35.1s.24-.06.33-.14c.09-.09.16-.24.2-.45.05-.27.06-.73.01-1.37-.05-.64-.11-1.08-.19-1.32Z"/>
  <path class="st0" d="M47.69,31.07c-.18.02-.39.05-.62.09-.23.04-.47.09-.72.15.02.54.05,1.18.08,1.92.03.74.06,1.54.07,2.38.55.07,1.02.09,1.41.05.47-.04.85-.17,1.13-.38.28-.21.49-.46.63-.74.14-.28.23-.58.25-.89.02-.31.03-.59,0-.83-.06-.63-.26-1.09-.6-1.4-.34-.31-.89-.42-1.65-.35Z"/>
  <path class="st0" d="M49.4,4.85C24.84,4.85,4.85,24.84,4.85,49.4s19.99,44.55,44.55,44.55,44.55-19.99,44.55-44.55S73.97,4.85,49.4,4.85ZM27.65,42.95c.14-.78.33-1.68.57-2.68.24-1,.51-2.05.81-3.15.3-1.1.6-2.14.9-3.12.29-.98.56-1.85.81-2.59.24-.75.44-1.27.58-1.58.1-.22.2-.36.3-.41.1-.05.28-.08.56-.11l2.18-.21c.38-.04.7,0,.97.13s.49.29.68.51c.19.22.35.48.49.77.14.3.26.6.36.91.84,2.42,1.54,4.41,2.09,5.97.55,1.57.98,2.83,1.31,3.79.32.96.55,1.68.69,2.14.14.46.21.79.23.97.02.21-.02.36-.11.45-.09.09-.25.14-.46.16l-1.17.11c-.66.06-1.19.03-1.59-.09-.4-.12-.72-.33-.96-.61-.23-.29-.42-.64-.55-1.07-.13-.43-.26-.91-.37-1.46l-3.98.38-.46,3.23c-.05.25-.22.39-.49.42l-1.21.11c-.24.02-.5.02-.76,0-.26-.03-.51-.09-.72-.2-.22-.1-.4-.24-.56-.42-.16-.18-.25-.4-.27-.68-.03-.34.02-.9.16-1.68ZM19.29,42.33l.08,4.24c0,.12-.03.21-.07.27-.04.06-.13.09-.27.11l-1.05.1c-.87.08-1.5-.03-1.89-.34-.39-.31-.62-.8-.68-1.47-.02-.2-.04-.52-.06-.95-.02-.44-.03-.96-.04-1.56-.01-.6-.02-1.25-.04-1.96-.01-.71-.02-1.43-.03-2.17,0-.91-.02-1.69-.03-2.34,0-.65-.02-1.21-.03-1.68-.01-.47-.02-.86-.03-1.18,0-.31-.02-.59-.03-.83-.01-.24-.03-.46-.04-.65s-.03-.41-.05-.64c-.01-.12.02-.21.09-.27.07-.06.14-.09.22-.1.4-.04.83-.09,1.3-.16.47-.07.94-.14,1.41-.21.47-.08.93-.15,1.37-.21.44-.06.83-.11,1.16-.14.98-.09,1.83-.05,2.55.12.72.17,1.33.46,1.8.87.48.41.85.92,1.12,1.55.27.62.44,1.34.52,2.17.08.9.05,1.78-.11,2.63-.16.86-.46,1.63-.9,2.32-.44.69-1.05,1.26-1.8,1.72-.76.46-1.69.74-2.79.84-.66.06-1.22.05-1.69-.05ZM32.67,60.02c-.16.86-.46,1.63-.9,2.32-.44.69-1.05,1.26-1.8,1.72-.76.46-1.69.74-2.79.84-.66.06-1.22.05-1.69-.05l.08,4.24c0,.12-.03.21-.07.27-.04.06-.13.09-.27.11l-1.05.1c-.87.08-1.5-.03-1.89-.34-.39-.31-.62-.8-.68-1.47-.02-.2-.04-.52-.06-.95-.02-.44-.03-.96-.04-1.56-.01-.6-.02-1.25-.04-1.96-.01-.71-.02-1.43-.03-2.17,0-.91-.02-1.69-.03-2.34,0-.65-.02-1.21-.03-1.68-.01-.47-.02-.86-.03-1.18,0-.31-.02-.59-.03-.83-.01-.24-.03-.46-.04-.65s-.03-.41-.05-.64c-.01-.12.02-.21.09-.27.07-.06.14-.09.22-.1.4-.04.83-.09,1.3-.16.47-.07.94-.14,1.41-.21.47-.08.93-.15,1.37-.21.44-.06.83-.11,1.16-.14.98-.09,1.83-.05,2.55.12.72.17,1.33.46,1.8.87.48.41.85.92,1.12,1.55.27.62.44,1.34.52,2.17.08.9.05,1.78-.11,2.63ZM34.62,80.12l-.39-5.48,4.06-.29.07.93-2.96.21.09,1.21,2.75-.19.07.92-2.75.19.11,1.49,3.06-.22.07.92-4.17.29ZM39.23,67.8c0,.12-.02.21-.07.27-.04.06-.13.09-.27.11l-1.26.12c-.86.08-1.48-.03-1.88-.33-.4-.3-.63-.76-.69-1.39-.03-.31-.05-.83-.08-1.58-.02-.74-.04-1.59-.06-2.55-.01-.95-.03-1.96-.05-3.02-.02-1.06-.04-2.06-.05-3-.01-.94-.03-1.76-.05-2.47-.02-.71-.04-1.19-.07-1.45-.02-.23.09-.36.33-.38l1.26-.12c.93-.09,1.58.05,1.94.42.36.37.57.94.65,1.72,0,.08.02.32.04.74.02.41.03.94.04,1.57.01.63.03,1.33.05,2.11.02.78.04,1.57.06,2.39.02.81.04,1.61.06,2.39.02.78.04,1.48.05,2.11.01.63.03,1.16.03,1.58,0,.42.01.68,0,.77ZM42.58,79.26c-.28.28-.73.45-1.32.49-.54.04-.97-.04-1.31-.24s-.56-.48-.68-.85l1.04-.24c.06.2.16.35.31.45.14.1.34.14.59.12.27-.02.47-.08.6-.19.09-.08.13-.17.12-.29,0-.08-.04-.14-.09-.19-.06-.05-.18-.08-.36-.11-.86-.13-1.41-.26-1.65-.4-.33-.19-.51-.48-.53-.86-.02-.34.09-.64.35-.9s.67-.4,1.24-.44c.54-.04.95.02,1.23.18.28.16.48.41.6.75l-.98.25c-.05-.15-.14-.26-.27-.34-.12-.07-.3-.1-.51-.09-.28.02-.47.07-.59.16-.08.06-.11.13-.1.22,0,.07.04.14.12.18.1.06.43.14,1,.23.57.09.97.22,1.2.38.23.17.36.42.38.76.03.36-.1.69-.39.97ZM45.06,79.47c-.19.01-.36,0-.52-.06-.16-.05-.27-.13-.35-.22-.08-.1-.14-.23-.18-.4-.03-.12-.06-.37-.09-.74l-.12-1.73-.48.03-.06-.84.48-.03-.06-.79,1.01-.69.1,1.4.72-.05.06.84-.72.05.11,1.6c.02.32.04.51.06.56.02.05.05.09.1.13.05.03.11.04.18.04.1,0,.24-.05.41-.13l.15.81c-.24.12-.51.19-.82.22ZM46.52,79.28l-.07-1.05,1.05-.07.07,1.05-1.05.07ZM48.68,67.49c-.78.07-1.57.03-2.37-.12-.8-.16-1.53-.48-2.19-.97-.66-.49-1.23-1.19-1.7-2.08s-.77-2.05-.9-3.45c-.05-.5-.07-1.09-.06-1.76,0-.67.08-1.37.21-2.09.13-.72.35-1.44.64-2.15.29-.71.7-1.36,1.21-1.95.51-.59,1.16-1.08,1.95-1.49.79-.41,1.74-.66,2.87-.77.9-.08,1.69-.05,2.38.1.68.15,1.26.39,1.73.73.47.33.83.74,1.09,1.23.25.48.41,1.01.46,1.57.09.98-.13,1.72-.66,2.22s-1.32.81-2.38.91c-.34.03-.55.02-.64-.02-.09-.05-.14-.15-.16-.32-.06-.52-.12-.97-.17-1.35-.05-.38-.13-.69-.25-.94-.11-.24-.27-.41-.48-.51-.2-.1-.47-.13-.81-.1-.49.05-.9.19-1.22.43-.32.24-.59.53-.8.88-.21.35-.36.74-.47,1.16-.11.43-.18.86-.22,1.29-.04.44-.06.85-.04,1.25.02.4.04.74.06,1.03.13,1.41.46,2.38.98,2.93.52.55,1.27.78,2.25.69.63-.06,1.15-.2,1.57-.43.42-.22.77-.47,1.05-.72.28-.26.53-.49.75-.7.22-.2.45-.32.7-.34.31-.03.48.19.52.64.02.24.02.54,0,.89-.03.35-.08.74-.14,1.18-.04.27-.16.56-.37.89-.21.33-.5.64-.89.95-.39.31-.87.58-1.46.81-.59.23-1.27.39-2.05.46ZM50.41,79.01c.01-.37.11-.73.28-1.07.18-.34.54-.81,1.09-1.4.44-.47.71-.79.81-.96.13-.23.19-.45.17-.66-.02-.23-.09-.41-.23-.53-.13-.12-.31-.17-.53-.15-.22.02-.39.09-.51.23-.12.14-.18.37-.18.67l-1.05-.03c.02-.58.19-1.01.5-1.29s.71-.43,1.21-.46c.54-.04.97.08,1.3.35.33.27.51.62.54,1.05.02.25-.01.48-.08.71-.07.23-.2.47-.37.73-.12.17-.33.42-.64.75-.31.33-.51.54-.59.65s-.15.21-.19.31l2.08-.15.07.97-3.68.26ZM53.22,43.75c-.35.17-.74.28-1.18.32-.49.05-.93-.07-1.32-.36-.39-.29-.75-.68-1.08-1.18-.33-.5-.63-1.08-.9-1.75-.27-.67-.53-1.37-.79-2.1-.55.02-1.01.01-1.37-.03.02.68.03,1.32.04,1.94.01.61.02,1.16.04,1.65.01.48.02.88.02,1.2,0,.32,0,.5,0,.56,0,.12-.03.21-.07.27-.04.06-.13.09-.27.11l-1.14.11c-.87.08-1.5-.03-1.89-.34-.39-.31-.62-.8-.68-1.47-.02-.18-.03-.49-.05-.93-.02-.44-.03-.96-.04-1.56-.01-.6-.02-1.26-.04-1.97-.01-.72-.02-1.44-.03-2.18-.02-1.55-.06-2.81-.09-3.78-.04-.97-.07-1.73-.09-2.28-.02-.69-.02-1.13.01-1.33.03-.2.12-.3.27-.31.47-.04.96-.1,1.45-.17.49-.07.97-.14,1.42-.22.45-.07.88-.14,1.29-.2.4-.06.76-.11,1.08-.14.98-.09,1.83-.05,2.55.13.73.18,1.33.47,1.8.87.48.4.85.91,1.11,1.51.27.61.44,1.3.51,2.08.11,1.19-.02,2.27-.41,3.25-.39.98-1.07,1.76-2.07,2.34l2.18,2.57c.4.49.71.86.92,1.13.21.27.32.47.33.6.01.11-.04.26-.15.46-.11.2-.29.41-.52.63-.23.22-.52.41-.87.58ZM57.78,78.02c-.27.39-.67.61-1.2.65-.53.04-.98-.14-1.33-.52-.35-.39-.57-1.1-.64-2.16-.07-1.03.05-1.79.38-2.26.27-.39.67-.61,1.2-.65.53-.04.96.12,1.28.48.39.42.62,1.15.69,2.19.07,1.04-.05,1.79-.38,2.27ZM58.92,78.4c.01-.37.11-.73.28-1.07.18-.34.54-.81,1.09-1.4.44-.47.71-.79.81-.96.13-.23.19-.45.17-.66-.02-.23-.09-.41-.23-.53-.13-.12-.31-.17-.53-.15-.22.02-.39.09-.51.23-.12.14-.18.37-.18.67l-1.05-.03c.02-.58.19-1.01.5-1.29.31-.27.71-.43,1.21-.46.54-.04.97.08,1.3.35.33.27.51.62.54,1.05.02.25-.01.48-.08.71-.07.23-.2.47-.37.73-.12.17-.33.42-.64.75-.31.33-.51.54-.59.65-.08.11-.15.21-.19.31l2.08-.15.07.97-3.68.26ZM66.38,77.88l-1.02.07-.08-1.1-2.24.16-.07-.92,2.13-3.65.88-.06.25,3.47.68-.05.07.92-.68.05.08,1.1ZM68.8,64.33c-.13.2-.31.41-.54.62-.23.21-.51.39-.83.56-.31.17-.66.27-1.02.3-.57.05-1.08-.08-1.54-.4-.46-.32-.89-.77-1.3-1.37-.4-.59-.79-1.31-1.16-2.14-.37-.84-.76-1.74-1.16-2.72l-.82.65.12,5.95c0,.12-.02.21-.07.27-.04.06-.13.09-.27.11l-1.26.12c-.87.08-1.5-.03-1.89-.34-.39-.31-.62-.8-.68-1.47-.02-.21-.04-.54-.06-.98-.02-.44-.03-.95-.04-1.54-.01-.59-.02-1.24-.04-1.95-.01-.71-.02-1.43-.03-2.17-.03-1.48-.05-2.64-.07-3.51-.01-.86-.03-1.54-.04-2.04-.02-.5-.03-.87-.04-1.11,0-.24-.02-.46-.04-.68-.02-.23.09-.36.33-.38l1.26-.12c.49-.05.89-.03,1.19.04.31.07.55.19.74.36.18.17.32.38.41.64.09.26.15.57.18.92.03.35.07.92.1,1.71.04.79.06,1.68.08,2.66.46-.69,1.01-1.54,1.64-2.56.64-1.01,1.41-2.27,2.31-3.75.04-.07.1-.15.17-.26.07-.11.16-.21.25-.31.09-.1.19-.19.3-.27.11-.08.22-.12.32-.13.2-.02.44.06.72.24.28.18.55.41.81.69.26.28.48.56.67.86.19.3.3.55.32.77.04.44-.29,1.14-1,2.09-.71.95-1.75,2.07-3.13,3.36.3.42.64.87,1.03,1.35.38.48.77.97,1.15,1.46.39.5.76.98,1.13,1.44.37.47.7.88.98,1.25.29.37.52.66.7.89.18.23.26.36.27.39.01.12-.05.29-.17.49ZM69.05,35.56c-.17.81-.35,1.6-.53,2.37-.18.77-.36,1.51-.54,2.21-.18.7-.35,1.32-.5,1.84-.05.13-.17.24-.35.32-.18.09-.48.15-.9.19-.26.02-.53.03-.81.03-.28,0-.54-.04-.79-.11-.25-.07-.46-.17-.65-.31-.19-.14-.34-.31-.46-.53-.3-.76-.6-1.6-.9-2.54-.3-.93-.59-1.89-.88-2.86-.29-.97-.58-1.93-.86-2.87-.28-.94-.56-1.78-.83-2.54.02.21.05.58.08,1.1.03.52.07,1.12.12,1.81.05.69.1,1.43.15,2.23.05.8.11,1.57.16,2.33.06.76.11,1.46.15,2.11.04.65.09,1.18.13,1.59.04.46.04.75,0,.88-.04.13-.13.2-.27.21l-1.26.12c-.87.08-1.5-.03-1.89-.34-.39-.31-.62-.8-.68-1.47-.02-.18-.03-.49-.05-.93-.02-.44-.03-.96-.04-1.56-.01-.6-.02-1.26-.04-1.97-.01-.72-.02-1.44-.03-2.18-.02-1-.03-1.83-.04-2.5,0-.67-.02-1.23-.03-1.67-.01-.45-.02-.81-.02-1.08,0-.28-.01-.52-.02-.74-.01-.21-.02-.42-.03-.61-.01-.19-.03-.43-.06-.72-.01-.12.03-.21.11-.28.09-.06.17-.1.24-.1l3.21-.3c.59-.06,1.09,0,1.49.15.4.15.74.42,1.02.79.28.37.53.87.74,1.49.21.62.42,1.36.64,2.22s.45,1.85.72,2.97c.27,1.12.6,2.38.99,3.78.16-.97.29-1.78.4-2.42.11-.64.2-1.18.28-1.61.08-.43.14-.79.19-1.07s.09-.54.13-.79c.04-.24.08-.51.13-.79.05-.28.11-.63.18-1.06.07-.42.15-.95.26-1.58.1-.63.23-1.43.39-2.4.02-.09.07-.19.13-.28.07-.09.2-.15.4-.16l3.57-.34c.49-.05.89-.03,1.19.04.31.07.55.19.74.36.19.17.32.38.41.64.09.26.15.57.18.92.03.35.07.92.1,1.71.04.79.07,1.68.09,2.67.02.99.05,2.02.08,3.08.03,1.06.05,2.04.07,2.95.02.91.03,1.68.04,2.31.01.63.02,1,.01,1.11,0,.12-.03.21-.07.27-.04.06-.13.09-.27.11l-1.26.12c-.87.08-1.5-.03-1.89-.34-.39-.31-.61-.74-.66-1.29-.02-.17-.03-.48-.03-.92,0-.45,0-.97,0-1.57s.01-1.26.02-1.98c0-.72.01-1.43,0-2.14,0-.71-.01-1.4-.02-2.07,0-.67-.02-1.26-.04-1.76-.09.38-.2.87-.33,1.48-.14.61-.28,1.27-.45,1.99-.16.72-.33,1.49-.5,2.3ZM80.3,61.56c-.17.61-.45,1.15-.84,1.63-.39.48-.91.87-1.55,1.17-.64.31-1.4.5-2.29.59-.76.07-1.48.05-2.14-.05-.67-.11-1.25-.26-1.75-.47-.51-.21-.91-.45-1.21-.72-.3-.27-.47-.53-.49-.77-.1-1.01-.11-1.74-.03-2.19.07-.45.26-.69.57-.72.21-.02.45.05.7.21.25.16.54.34.87.54.33.2.7.37,1.12.52.42.15.9.19,1.43.14.21-.02.42-.06.62-.12.2-.06.38-.14.53-.25.15-.11.27-.24.35-.4.09-.16.12-.35.1-.56-.04-.38-.21-.67-.52-.88-.31-.2-.7-.38-1.16-.53s-.96-.3-1.49-.46c-.53-.16-1.03-.4-1.51-.71-.48-.32-.89-.74-1.23-1.28-.34-.54-.56-1.25-.64-2.14-.09-.99.01-1.85.32-2.57s.74-1.33,1.28-1.82c.55-.49,1.18-.87,1.9-1.13.72-.26,1.45-.43,2.18-.49,1.44-.14,2.53.08,3.28.64.75.56,1.18,1.34,1.27,2.35.08.86-.09,1.53-.52,2.03-.43.5-1.09.78-1.97.87-.28.03-.45.02-.54-.03-.08-.05-.13-.15-.14-.32-.01-.15-.05-.35-.09-.59-.05-.24-.13-.47-.24-.69-.11-.22-.28-.4-.49-.54-.21-.14-.5-.2-.85-.16-.49.05-.91.24-1.26.57-.35.33-.51.74-.46,1.21.04.41.23.73.56.96.34.23.75.43,1.25.61.49.18,1.03.35,1.61.53.58.18,1.12.43,1.63.76.51.33.95.76,1.31,1.29.36.53.59,1.22.67,2.07.06.67.01,1.31-.15,1.92ZM81.67,40.96c-.04.06-.13.09-.27.11l-1.26.12c-.86.08-1.48-.03-1.88-.33-.4-.3-.63-.76-.69-1.39-.03-.31-.05-.83-.08-1.58-.02-.74-.04-1.59-.06-2.55-.01-.95-.03-1.96-.05-3.02-.02-1.06-.04-2.06-.05-3-.01-.94-.03-1.76-.05-2.47-.02-.71-.04-1.19-.07-1.45-.02-.23.09-.36.33-.38l1.26-.12c.93-.09,1.58.05,1.93.42.36.37.57.94.65,1.72,0,.08.02.32.03.74.02.41.03.94.04,1.57s.03,1.33.05,2.11c.02.78.04,1.57.06,2.39.02.81.04,1.61.06,2.39.02.78.04,1.48.05,2.11.01.63.03,1.16.03,1.58,0,.42.01.68,0,.77,0,.12-.02.21-.07.27Z"/>
  <polygon class="st0" points="33.58 32.57 32.48 38.77 35.11 38.52 33.58 32.57"/>
  <path class="st0" d="M49.4,0C22.12,0,0,22.12,0,49.4s22.12,49.4,49.4,49.4,49.4-22.12,49.4-49.4S76.69,0,49.4,0ZM49.4,95.63c-25.49,0-46.22-20.74-46.22-46.22S23.91,3.18,49.4,3.18s46.22,20.74,46.22,46.22-20.74,46.22-46.22,46.22Z"/>
</svg>