<?xml version="1.0" encoding="UTF-8"?>
<svg id="Layer_1" xmlns="http://www.w3.org/2000/svg" version="1.1" viewBox="0 0 297.13 159.72">
  <!-- Generator: Adobe Illustrator 30.0.0, SVG Export Plug-In . SVG Version: 2.1.1 Build 123)  -->
  <defs>
    <style>
      .st0 {
        fill: #fff;
      }

      .st1 {
        fill: #ef4723;
      }
    </style>
  </defs>
  <ellipse class="st1" cx="148.57" cy="80.24" rx="148.57" ry="79.47"/>
  <path class="st0" d="M260.92,23c1.17,3.52-.84,7.06-1.93,11.06-.91,3.33-.17,7.78-2.5,11.33-1.94,2.94-3.98,6.51-6.82,9.53-2.46,2.62-6.81,3.73-9.89,6.37-2.77,2.37-5.92,4.49-9.16,6.85-2.98,2.17-4.76,6.42-8.11,8.55-3.14,2-7.69,1.91-11.12,3.85-3.25,1.84-6.37,4.09-9.87,5.86s-5.98,5.14-9.53,6.77-7.26,2.5-10.86,3.99c-3.49,1.44-7.78,1.01-11.43,2.36s-7.55,1.34-11.23,2.56-6.41,5.27-10.04,6.34-7.53,1.83-11.19,2.76-7.55,1.76-11.23,2.55-8.03-.94-11.73-.3-7.07,5.14-10.78,5.6c-3.91.49-7.87.36-11.57.64-3.96.29-7.88.43-11.57.47-4.01.05-7.99.47-11.63.22-4.05-.27-7.6-3.38-11.14-4.01-4.08-.73-7.88-1.07-11.19-2.28-3.99-1.45-7.68-2.78-10.4-4.91-3.26-2.55-3.75-6.41-4.92-9.93s-1.66-6.53-.57-10.52c.91-3.33.48-7.77,2.82-11.31,1.94-2.94,6.66-4.05,9.5-7.07,2.46-2.62,4.34-6.03,7.43-8.67,2.77-2.37,6.32-3.94,9.56-6.3,2.98-2.17,4.64-6.53,7.99-8.66,3.14-2,7.2-2.72,10.63-4.66,3.25-1.84,7.31-2.28,10.8-4.05s5.86-5.24,9.41-6.86,6.45-4.32,10.05-5.81,6.86-3.55,10.5-4.9,7.65-1.38,11.33-2.6,7.7-1.26,11.33-2.33,6.85-4.35,10.5-5.28c3.77-.96,7.63-1.63,11.32-2.43,3.82-.82,7.82-.63,11.52-1.27s8.04,1.47,11.75,1c3.91-.49,7.44-3.49,11.15-3.77,3.96-.29,7.86.84,11.55.8,4.01-.05,7.97-2.27,11.61-2.03,4.05.27,8.01,1.12,11.55,1.75,4.08.73,7.54,3.18,10.85,4.38,3.99,1.45,6.59,4.27,9.31,6.4,3.26,2.55,6.77,4.45,7.94,7.97Z"/>
  <path class="st1" d="M71.15,122.61c-.89,0-1.79-.02-2.66-.08-2.67-.18-5.07-1.35-7.17-2.39-1.5-.74-2.92-1.43-4.2-1.66-1.07-.19-2.11-.36-3.14-.52-2.96-.47-5.77-.91-8.4-1.86-4.16-1.51-8.01-2.92-10.99-5.25-3.15-2.48-4.13-5.88-4.99-8.89-.2-.69-.4-1.38-.62-2.05-1.26-3.8-1.84-7.25-.6-11.79.28-1.03.41-2.18.56-3.38.33-2.71.7-5.78,2.53-8.55,1.32-2.01,3.45-3.23,5.52-4.41,1.53-.88,3.11-1.79,4.21-2.95.92-.99,1.76-2.09,2.61-3.21,1.44-1.9,2.94-3.86,4.97-5.61,1.71-1.46,3.67-2.63,5.56-3.76,1.37-.82,2.78-1.65,4.12-2.63,1.12-.82,2.11-2.16,3.16-3.57,1.32-1.79,2.82-3.82,4.94-5.17,1.85-1.18,3.92-1.94,5.92-2.67,1.72-.63,3.34-1.22,4.82-2.06,1.91-1.08,3.98-1.71,5.99-2.32,1.75-.53,3.39-1.02,4.89-1.78,1.36-.69,2.63-1.8,3.98-2.98,1.66-1.45,3.37-2.95,5.53-3.94,1.46-.66,2.87-1.59,4.36-2.57,1.8-1.18,3.65-2.4,5.76-3.27,1.52-.63,3.02-1.39,4.53-2.15,1.93-.98,3.94-2,6.07-2.79,2.05-.76,4.2-1.13,6.28-1.49,1.82-.32,3.54-.62,5.15-1.15,2.14-.71,4.31-1.04,6.41-1.36,1.7-.26,3.4-.51,5.01-.99,1.53-.45,3.03-1.39,4.62-2.38,1.85-1.16,3.76-2.36,5.96-2.92,2.53-.64,5.1-1.16,7.63-1.67l3.77-.78c2.25-.48,4.5-.64,6.68-.79,1.68-.12,3.35-.22,4.96-.5,2.43-.42,4.75.04,7.01.49,1.78.35,3.45.69,4.87.5,1.58-.2,3.19-.94,4.89-1.72,2.02-.93,4.1-1.89,6.4-2.06,2.41-.17,4.72.12,6.94.4,1.61.2,3.1.46,4.74.4,1.63-.02,3.34-.48,5.14-.97,2.15-.59,4.4-1.21,6.65-1.04,3.43.23,6.81.86,9.79,1.42l1.98.37c2.88.52,5.44,1.78,7.7,2.9,1.2.59,2.35,1.17,3.49,1.59,3.41,1.24,5.87,3.34,8.04,5.2.62.54,1.24,1.06,1.86,1.54.64.5,1.28.98,1.92,1.44,2.73,2.01,5.56,4.08,6.71,7.54h0c1.1,3.33.04,6.47-1,9.51-.31.91-.63,1.85-.89,2.81-.29,1.07-.38,2.27-.49,3.51-.23,2.67-.49,5.69-2.3,8.43l-1.19,1.85c-1.62,2.54-3.46,5.43-5.85,7.98-1.56,1.67-3.63,2.75-5.63,3.8-1.63.85-3.16,1.65-4.41,2.72-2.15,1.84-4.46,3.49-6.9,5.24l-2.38,1.71c-1.14.83-2.15,2.15-3.22,3.54-1.42,1.85-2.88,3.75-4.99,5.09-1.92,1.22-4.14,1.75-6.28,2.27-1.82.44-3.55.85-4.95,1.65-1.3.73-2.57,1.54-3.86,2.35-1.96,1.23-3.96,2.48-6.08,3.56-1.37.7-2.67,1.79-4.05,2.95-1.69,1.42-3.44,2.89-5.58,3.87-1.95.89-4.03,1.59-6.12,2.29-1.61.54-3.23,1.08-4.8,1.73-2.07.85-4.27,1.12-6.4,1.38-1.85.22-3.59.44-5.12,1.01-2.05.76-4.18,1.12-6.23,1.47-1.8.3-3.49.59-5.09,1.12-1.43.48-2.81,1.6-4.27,2.78-1.76,1.43-3.57,2.91-5.85,3.58-2.35.69-4.73,1.24-7.09,1.78-1.4.33-2.8.64-4.18,1-3.5.89-7,1.64-10.43,2.38l-.88.19c-2.35.51-4.66.22-6.92-.08-1.78-.23-3.48-.46-4.93-.2-1.42.25-2.92,1.32-4.51,2.46-1.95,1.4-3.97,2.85-6.4,3.16-2.44.3-4.89.38-7.29.45-1.5.04-2.98.09-4.43.19-4,.29-7.96.43-11.69.47-1.44.01-2.88.08-4.3.14-1.6.07-3.24.15-4.85.15ZM176.85,8.54c-.43,0-.84.03-1.24.1-1.75.3-3.57.43-5.41.56-2.11.15-4.11.28-6.05.7l-3.83.79c-2.46.49-4.95.99-7.41,1.62-1.53.39-3.08,1.36-4.71,2.38-1.77,1.11-3.6,2.26-5.72,2.88-1.84.54-3.73.83-5.57,1.11-2.01.31-3.91.6-5.7,1.19-1.91.64-3.88.98-5.78,1.3-1.97.34-3.83.66-5.5,1.28-1.89.7-3.78,1.66-5.6,2.59-1.61.82-3.21,1.63-4.84,2.3-1.72.71-3.32,1.76-5.02,2.88-1.57,1.03-3.19,2.09-4.95,2.9-1.57.72-2.98,1.95-4.47,3.25s-3.04,2.65-4.87,3.58c-1.84.93-3.76,1.51-5.6,2.07-1.86.57-3.63,1.1-5.11,1.94-1.79,1.01-3.66,1.69-5.47,2.36-1.86.68-3.63,1.33-5.08,2.25-1.43.91-2.57,2.45-3.76,4.07-1.2,1.62-2.44,3.3-4.11,4.51-1.46,1.06-2.97,1.96-4.45,2.85-1.82,1.08-3.53,2.11-4.96,3.33-1.68,1.44-3.03,3.21-4.33,4.93-.95,1.25-1.88,2.47-2.91,3.56-1.54,1.65-3.5,2.77-5.23,3.76-1.69.97-3.28,1.88-4.04,3.02-1.25,1.91-1.55,4.33-1.84,6.68-.17,1.41-.34,2.77-.68,3.99-.95,3.51-.53,6.05.54,9.25.24.73.46,1.47.67,2.22.78,2.71,1.45,5.06,3.49,6.66,2.42,1.9,5.96,3.19,9.7,4.55,2.31.84,4.91,1.25,7.66,1.68,1.05.17,2.14.33,3.23.53,1.88.34,3.65,1.2,5.35,2.04,1.92.94,3.72,1.83,5.54,1.95,2.2.16,4.54.04,7.01-.07,1.47-.07,2.96-.13,4.45-.15,3.65-.04,7.52-.17,11.42-.46,1.5-.11,3.05-.16,4.62-.2,2.27-.07,4.57-.13,6.87-.42,1.32-.17,2.81-1.24,4.39-2.37,1.83-1.32,3.91-2.8,6.32-3.22,2.11-.36,4.21-.09,6.24.17,1.95.25,3.82.49,5.43.14l.89-.19c3.37-.72,6.82-1.46,10.27-2.34,1.4-.36,2.83-.69,4.27-1.02,2.28-.53,4.57-1.06,6.85-1.72,1.42-.42,2.82-1.56,4.31-2.77,1.7-1.38,3.46-2.82,5.65-3.54,1.92-.64,3.86-.96,5.73-1.28,1.94-.33,3.78-.64,5.44-1.26,2.02-.75,4.1-1,6.11-1.25,1.92-.23,3.74-.46,5.27-1.09,1.66-.69,3.38-1.26,5.08-1.83,1.95-.65,3.88-1.29,5.69-2.12,1.6-.73,3.05-1.95,4.58-3.24,1.51-1.26,3.07-2.57,4.88-3.49,2.01-1.02,3.89-2.2,5.74-3.37,1.35-.85,2.68-1.68,4.04-2.45,1.94-1.09,4.05-1.6,6.09-2.09,1.88-.45,3.65-.88,4.95-1.7,1.46-.93,2.63-2.45,3.88-4.07,1.21-1.58,2.47-3.21,4.12-4.41l2.41-1.74c2.36-1.69,4.59-3.28,6.6-5,1.63-1.39,3.46-2.35,5.23-3.28,1.76-.92,3.41-1.79,4.47-2.91,2.11-2.25,3.76-4.84,5.35-7.33l1.23-1.9c1.19-1.81,1.38-4.04,1.59-6.4.12-1.43.25-2.91.63-4.29.28-1.05.63-2.07.97-3.07.87-2.57,1.63-4.78.98-6.71-.7-2.13-2.76-3.64-5.14-5.38-.67-.5-1.36-1-2.04-1.54-.66-.52-1.33-1.08-2-1.66-1.98-1.69-4.02-3.44-6.69-4.41-1.28-.47-2.59-1.11-3.93-1.78-2.09-1.04-4.26-2.11-6.53-2.52l-2.01-.37c-3.01-.56-6.12-1.14-9.28-1.36-1.54-.1-3.31.38-5.2.89-1.99.54-4.04,1.1-6.24,1.13-1.78-.02-3.6-.21-5.34-.43-2.1-.27-4.09-.53-6.07-.38-1.5.11-3.15.86-4.88,1.67-1.93.89-3.93,1.8-6.18,2.09-2.09.27-4.23-.14-6.27-.54-1.47-.29-2.87-.57-4.17-.57Z"/>
  <path class="st1" d="M104.71,97.62c-1.9,0-3.67-.34-5.38-.67-1.41-.27-2.74-.53-3.96-.54-1.54-.05-2.95.1-4.37.22-1.87.16-3.8.32-5.7.15-2.35-.21-4.46-.71-6.49-1.2-1.16-.28-2.28-.55-3.4-.74-3.63-.62-6.82-1.5-9.63-2.27-2.96-.81-5.27-1.85-7.31-2.76-.74-.33-1.45-.65-2.14-.93-2.35-.96-3.47-.75-4.66-.52-1.54.28-3.45.64-6.23-1.43-.97-.72-1.17-2.1-.45-3.07.73-.97,2.11-1.17,3.07-.45,1.24.93,1.6.87,2.81.64,1.53-.28,3.6-.67,7.13.78.73.3,1.49.64,2.27.99,1.99.89,4.04,1.81,6.56,2.51,2.96.81,5.91,1.62,9.33,2.21,1.2.21,2.42.5,3.67.8,1.88.45,3.82.92,5.85,1.1,1.52.13,3.2,0,4.95-.15,1.56-.13,3.14-.26,4.8-.23,1.61.03,3.19.33,4.72.62,1.75.34,3.41.66,5.08.58,1.31-.06,2.65-.06,4-.05,1.89,0,3.84.02,5.83-.18,1.51-.16,3.1-.59,4.78-1.05,1.59-.43,3.2-.87,4.86-1.13,1.44-.22,2.94-.77,4.51-1.35,1.57-.57,3.18-1.17,4.95-1.53l3.04-.59c2.14-.41,4.33-.82,6.55-1.37,1.55-.38,3.18-.55,4.83-.72,1.76-.17,3.41-.34,5-.8,1.73-.5,3.51-.58,5.24-.66,1.72-.08,3.34-.16,4.78-.62,2.37-.77,4.66-1.65,6.88-2.49l3.18-1.2c1.58-.58,3.02-1.63,4.55-2.75,1.47-1.07,2.98-2.17,4.7-2.89,2.01-.84,4.08-1.05,6.09-1.26,1.75-.18,3.41-.36,4.63-.94,3.37-1.62,6.65-3.21,9.57-4.84,1.29-.72,2.26-2.28,3.3-3.92,1.08-1.73,2.2-3.51,3.89-4.64,1.92-1.27,4.15-1.76,6.12-2.2,1.7-.38,3.31-.73,4.23-1.47,1.43-1.15,2.45-2.88,3.44-4.55.85-1.44,1.73-2.93,2.9-4.12,2.72-2.78,4.73-5.45,6.51-7.93,2.7-3.78,4.28-6.35,5.27-8.61.79-1.81,1.38-2.98,1.82-3.85q.97-1.93.93-5.26c-.02-1.21.95-2.2,2.16-2.22,1.18.18,2.21.95,2.22,2.16.06,4.16-.11,4.73-1.39,7.29-.41.82-.97,1.92-1.72,3.63-1.11,2.56-2.82,5.37-5.72,9.41-1.87,2.62-4.01,5.46-6.94,8.45-.79.81-1.5,2.01-2.25,3.28-1.14,1.92-2.42,4.09-4.47,5.74-1.71,1.38-3.9,1.87-6.02,2.34-1.76.39-3.41.76-4.66,1.58-.91.6-1.73,1.92-2.6,3.31-1.22,1.95-2.6,4.16-4.87,5.43-3.01,1.68-6.37,3.31-9.82,4.97-1.91.92-4.03,1.14-6.08,1.35-1.77.18-3.44.36-4.85.95-1.24.52-2.49,1.43-3.81,2.39-1.7,1.24-3.46,2.52-5.62,3.31l-3.14,1.18c-2.29.88-4.65,1.77-7.09,2.57-1.99.65-3.98.74-5.92.83-1.54.07-3,.14-4.24.5-1.96.56-3.9.76-5.77.94-1.44.14-2.86.28-4.21.61-2.31.57-4.57,1-6.79,1.42l-2.99.58c-1.49.3-2.91.83-4.31,1.35-1.71.63-3.47,1.28-5.35,1.57-1.5.23-2.95.64-4.38,1.03-1.78.49-3.61.99-5.49,1.19-2.14.22-4.26.21-6.3.2-1.28,0-2.54-.01-3.76.04-.25.01-.49.02-.73.02Z"/>
  <path class="st0" d="M40.65,62.82c-.54.53-.03,1.48.71,1.29,5.81-1.53,18.59-3.44,20.59,8.57,2.61,15.64-2.61,65.17,4.34,65.17s6.08-52.13,15.64-52.13,6.08,23.46,11.3,23.46,6.08-27.8,11.3-27.8,13.03,8.69,23.46,7.82c10.43-.87,15.64-25.79,28.67-24.19,13.03,1.6,53,2.47,59.08,25.93,6.08,23.46,22.59,11.3,21.72-1.74-.87-13.03-28.67-37.36-16.51-46.92,12.16-9.56,13.9-17.04,6.08-18.51-7.82-1.47,22.66-21.46,10.46-21.46-11.02,0-22.04-.26-33.05.07-3.55.11-8.2-.49-11.53.99-3.82,1.7-6.08,4.37-10.66,4.33-3.42-.03-6.68-1.32-10.01-2.12-3.32-.8-7.06-1.05-9.94.79-2.34,1.5-3.29,8.24-5.87,9.26-3.35,1.33-7.25-4.65-10.54-5.15-3.42-.53-6.55.65-9.86,1.49-8.17,2.08-16.25,4.53-24.18,7.4-5.02,1.81-9.98,3.79-14.87,5.94-2.71,1.2-11.5,3.43-12.31,6.25-.31,1.08-.18,2.23-.08,3.35.4,4.49-.11,9.76-3.84,12.28-3.03,2.05-7.03,1.49-10.68,1.28-5.29-.3-11.87-.22-16.32,2.74-4.75,3.16-9.05,7.64-13.1,11.63Z"/>
  <path class="st1" d="M66.29,140.04c-.7,0-1.73-.2-2.69-1.17-3.53-3.58-3.5-16.54-3.18-37.4.17-11.07.35-22.52-.63-28.43-.49-2.92-1.69-4.96-3.67-6.24-4.12-2.66-10.67-1.5-14.2-.57-1.28.34-2.62-.22-3.28-1.39-.67-1.17-.47-2.64.48-3.58h0s1.47-1.45,1.47-1.45c3.73-3.71,7.6-7.54,11.95-10.44,5.04-3.35,12.08-3.41,17.66-3.1l1.28.08c3.07.21,5.98.4,8.04-.99,2.96-2,3.21-6.69,2.89-10.28-.12-1.36-.25-2.73.17-4.16.86-2.99,5.24-4.71,10.87-6.66,1.09-.38,2.05-.7,2.66-.98,4.85-2.14,9.9-4.16,15.01-6,7.77-2.8,15.98-5.31,24.39-7.46l1.68-.45c2.83-.78,5.76-1.59,9.04-1.08,1.96.3,3.72,1.69,5.41,3.04,1.28,1.01,3.2,2.54,3.99,2.24.55-.3,1.47-2.46,1.96-3.62.96-2.25,1.86-4.38,3.53-5.45,2.93-1.87,6.86-2.22,11.65-1.08.96.23,1.92.5,2.87.77,2.3.65,4.47,1.27,6.64,1.29,2.39.05,4.15-.96,6.22-2.22,1.09-.66,2.23-1.34,3.53-1.92,2.95-1.3,6.49-1.24,9.64-1.19.93,0,1.85.03,2.72,0,7.67-.23,15.46-.17,23-.12,3.37.02,6.75.05,10.12.05,2.56,0,4.18.8,4.85,2.38,1.28,3.09-2.01,6.62-7.93,12.59-1.95,1.96-4.99,5.03-6.09,6.73,3.96,1.06,5.12,3.45,5.46,4.85,1.41,5.77-5.46,12.62-11.48,17.34-5.4,4.24-.26,13.05,7.57,25.03,4.83,7.38,9.39,14.34,9.77,20.02.54,8.1-4.85,16.16-11.53,17.24-3.07.52-10.65.05-14.5-14.81-5.01-19.33-36.62-22.31-51.81-23.75-2.09-.2-3.92-.37-5.41-.55-5.96-.76-10.15,5.71-14.38,11.9-4.15,6.08-8.07,11.82-13.85,12.31-6.94.58-12.66-2.58-17.26-5.12-2.51-1.39-4.88-2.7-6.38-2.7-1.03.84-2.58,7.94-3.51,12.18-1.91,8.73-3.41,15.62-7.79,15.62-4.09,0-4.88-5.08-5.77-10.96-1.05-6.84-2.18-12.49-5.53-12.49s-5.82,18.42-7.06,27.27c-2.34,16.79-3.69,24.86-8.58,24.86ZM49.36,60.79c3.14,0,6.42.57,9.13,2.33,3.04,1.96,4.92,5.06,5.62,9.2,1.05,6.3.88,17.43.7,29.22-.19,12.02-.46,29.84,1.53,33.71,1.68-2.71,3.18-13.41,4.19-20.67,2.7-19.32,4.82-31.05,11.4-31.05,7.38,0,8.75,8.99,9.86,16.22.35,2.31.86,5.64,1.49,6.93,1.25-1.79,2.61-8.01,3.46-11.86,1.91-8.73,3.41-15.62,7.79-15.62,2.64,0,5.36,1.5,8.51,3.24,4.28,2.37,9.17,5.04,14.76,4.59,3.7-.31,7.21-5.44,10.59-10.41,4.73-6.94,10.08-14.82,18.53-13.78,1.46.18,3.24.35,5.28.54,16.19,1.53,49.87,4.71,55.65,27.02,2.07,8,5.56,12.23,9.56,11.58,3.98-.64,8.28-6.3,7.85-12.62-.3-4.54-4.75-11.34-9.05-17.91-7.31-11.17-15.59-23.82-6.62-30.87,8.66-6.81,10.32-11.28,9.94-12.86-.26-1.07-1.72-1.56-2.91-1.78-2.04-.38-2.71-1.64-2.94-2.36-.88-2.83,2.01-5.91,7.61-11.56,2.19-2.2,5.65-5.69,6.65-7.49-.13,0-.28-.01-.46-.01-3.38,0-6.77-.03-10.15-.05-7.49-.05-15.23-.1-22.83.12-.92.03-1.92.01-2.94,0-2.8-.05-5.72-.1-7.78.81-1.12.5-2.09,1.09-3.04,1.67-2.35,1.42-4.76,2.69-8.53,2.85-2.75-.03-5.31-.75-7.79-1.46-.9-.25-1.8-.51-2.7-.73-3.6-.86-6.37-.7-8.25.51-.53.34-1.37,2.3-1.86,3.47-1.07,2.51-2.17,5.1-4.38,5.98-3.14,1.22-6.01-1.05-8.33-2.88-1.14-.9-2.54-2.02-3.36-2.14-2.36-.36-4.72.29-7.21.98l-1.76.48c-8.28,2.11-16.35,4.58-23.98,7.33-5.02,1.81-9.97,3.79-14.73,5.88-.69.3-1.76.68-2.99,1.11-2.04.7-7.45,2.58-8.11,3.8-.16.58-.08,1.43,0,2.33.62,6.98-1.05,11.93-4.79,14.45-3.3,2.24-7.28,1.97-10.79,1.73l-1.24-.08c-4.5-.27-10.97-.3-14.98,2.37-3.3,2.19-6.4,5.09-9.4,8.03,1.21-.16,2.5-.26,3.8-.26Z"/>
  <path class="st0" d="M132.95,43.03S125.29,4.7,164.71.77c1.19,29.75-12.3,33.95-31.76,42.26Z"/>
  <path class="st0" d="M156.91,8.71c-11.4,5.17-23.96,34.33-23.96,34.33,0,0,23.13-13.62,42.08.28-31.92,27.34-42.08-.28-42.08-.28"/>
  <path class="st0" d="M146.2,19.1s9.47-4.42,13.71-5.02"/>
  <path class="st0" d="M142.41,24.86s6.36-3.25,10.85-3.13"/>
  <path class="st0" d="M138.09,32.46s11.22-4.84,17.37-5.83"/>
  <path class="st0" d="M141,27.21s2.26-8-.41-10.12"/>
  <path class="st0" d="M148.79,15.52s1.61-3.09-.22-5.49"/>
  <path class="st0" d="M132.95,43.03s19.85,4.66,34.31,1.4"/>
  <path class="st0" d="M138.62,44.12s4.72,6.71,10.78,6.75"/>
  <path class="st0" d="M150.73,45.86s2.43,3.15,6.19,3.18"/>
  <path class="st0" d="M154.57,45.58s.35-2.04,3.55-3.79"/>
  <path class="st0" d="M161.82,45.29s.49-2.69,2.55-3.55"/>
  <path class="st0" d="M132.84,43.78s-14.8-6.57-11.55-20.68c15.41,3.67,11.55,20.68,11.55,20.68Z"/>
  <path class="st1" d="M175.44,42.75c-9.3-6.82-19.63-7.1-27.82-5.58,11.39-6.08,18.67-14.44,17.79-36.43l-.03-.74-.74.07c-11.92,1.19-20.79,5.62-26.37,13.15-4.04,5.45-5.72,11.65-6.34,17-1.74-3.4-4.87-6.47-10.49-7.8-.18-.04-.37-.01-.53.09-.16.1-.27.25-.31.43-3.34,14.5,11.79,21.4,11.95,21.47.09.04.18.06.27.06,1.26,2.65,5,9.05,12.62,11.04,1.49.39,3.04.58,4.64.58,7.36,0,15.88-4.1,25.39-12.25.16-.14.25-.34.24-.56-.01-.21-.11-.41-.28-.54ZM139.39,14.05c5.22-7.05,13.51-11.25,24.65-12.51.79,24.4-8.62,30.92-23.36,37.42-2.69.9-4.87,1.85-6.27,2.53.84-1.84,2.35-4.96,4.22-8.5,1.34-.57,11.33-4.77,16.94-5.67.38-.06.64-.42.57-.8-.06-.38-.38-.66-.8-.58-4.73.76-12.23,3.69-15.68,5.11,1.01-1.84,2.07-3.74,3.24-5.66.87-.43,6.2-2.97,10.11-2.97.07,0,.15,0,.22,0,.45,0,.7-.3.72-.68,0-.38-.3-.7-.68-.71-.08,0-.17,0-.25,0-2.96,0-6.53,1.28-8.77,2.23.78-1.22,1.58-2.43,2.41-3.59.87-.4,9.45-4.33,13.35-4.89.38-.05.64-.41.59-.79-.06-.38-.37-.66-.79-.59-2.99.43-8.33,2.62-11.45,3.99,2.88-3.7,5.91-6.71,8.84-8.04.35-.16.5-.57.34-.92-.15-.35-.56-.51-.92-.35-2.17.98-4.36,2.79-6.5,5.07.07-1.1-.1-2.37-.99-3.53-.24-.31-.67-.36-.98-.13-.31.23-.37.67-.14.98,1.53,2.01.17,4.72.15,4.75-.03.06,0,.12-.01.19-2,2.44-3.93,5.22-5.71,8.06.31-2.54.26-5.58-1.41-6.91-.29-.24-.73-.18-.98.11-.24.3-.19.74.11.98,1.65,1.31,1.01,6.29.21,9.23-2.77,4.76-5.02,9.31-6.44,12.33,0-1.74-.2-3.77-.78-5.85.27-5.74,1.65-13.08,6.25-19.29ZM121.82,23.95c5.91,1.63,8.66,5.38,9.88,9.17-.14,2.76-.03,5.16.14,6.92-.34-.7-.7-1.45-1.11-2.27-.2-1.97-.88-7.87-1.99-8.95-.27-.27-.71-.26-.97.01-.27.27-.27.71,0,.99.32.34.71,2.07,1.04,4.15-1.42-2.76-2.91-5.46-4.02-7.06-.22-.31-.66-.4-.97-.17-.32.22-.4.65-.18.97,2.18,3.13,5.95,10.86,7.65,14.46-3.65-2.16-11.43-8.02-9.49-18.21ZM145.81,54.17c-6.85-1.78-10.41-7.64-11.66-10.17.93.19,2.31.45,4.06.74.79,1.06,5.29,6.78,11.17,6.83h0c.38,0,.69-.31.7-.69,0-.38-.31-.7-.69-.7-3.99-.03-7.41-3.22-9.09-5.1,1.37.2,2.9.39,4.51.57.04,0,.08.04.13.04.02,0,.03-.02.04-.02,1.63.18,3.34.33,5.13.43.02.06,0,.14.05.19.11.14,2.69,3.42,6.73,3.46h0c.38,0,.69-.31.7-.69,0-.38-.31-.7-.69-.7-2.27-.02-3.97-1.3-4.89-2.16.79.03,1.59.05,2.39.06,0,0,.01.01.02.01.05,0,.09.01.13.01.02,0,.04-.02.06-.02.28,0,.55.02.83.02,2.1,0,4.22-.1,6.3-.3.02,0,.04,0,.06,0,.03,0,.04-.02.07-.02,1.89-.19,3.76-.45,5.53-.85.37-.09.61-.46.53-.83-.08-.37-.41-.62-.83-.53-1.38.31-2.82.53-4.28.71.3-.73.83-1.67,1.81-2.08.36-.15.53-.56.38-.91-.15-.35-.58-.53-.91-.37-1.81.75-2.56,2.62-2.84,3.54-1.86.17-3.74.24-5.62.25.39-.65,1.15-1.57,2.81-2.48.34-.19.46-.61.27-.95-.18-.34-.6-.46-.95-.28-2.46,1.35-3.35,2.87-3.69,3.69-2.7-.05-5.34-.22-7.8-.46,1.1-1.29,3.25-3.51,5.79-4.24.37-.11.58-.49.47-.86s-.5-.59-.86-.47c-3.5,1.01-6.24,4.33-7.06,5.41-3.98-.45-7.32-1.03-9.37-1.43l.7-.3c1.84-.78,3.62-1.54,5.34-2.3,8.14-2.68,21.14-4.77,32.58,3.16-10.91,9.17-20.36,12.79-28.07,10.81Z"/>
  <ellipse class="st1" cx="205.38" cy="14.67" rx="3.08" ry="2.14"/>
  <ellipse class="st1" cx="196.69" cy="40.9" rx="5.6" ry="2.52"/>
  <ellipse class="st1" cx="113.05" cy="60.72" rx="5.14" ry="2.87"/>
  <ellipse class="st1" cx="116.87" cy="52.37" rx="2.52" ry="1.36"/>
  <ellipse class="st1" cx="79.77" cy="59.65" rx="3.5" ry="1.8"/>
  <ellipse class="st1" cx="102.73" cy="36.04" rx="2.66" ry="1.14"/>
  <ellipse class="st1" cx="81.66" cy="65.55" rx="1.89" ry=".84"/>
  <ellipse class="st1" cx="171.91" cy="34.37" rx="4.9" ry="2.11"/>
  <path class="st0" d="M151.68,137.74c-30.81,0-54.22-5-54.67-5.1-1.18-.26-1.93-1.43-1.67-2.61s1.4-1.93,2.62-1.67c.86.19,86.56,18.48,145.1-15.93,14.76-8.67,23.3-18.76,25.37-29.97,2.63-14.23-6.28-25.58-6.37-25.69-.75-.94-.6-2.32.34-3.08.93-.76,2.31-.61,3.08.33.41.52,10.24,12.95,7.27,29.17-2.3,12.54-11.54,23.65-27.47,33.01-29.11,17.1-64.63,21.53-93.6,21.53Z"/>
</svg>